<svg width="64" height="64" viewBox="0 0 64 64" fill="none" xmlns="http://www.w3.org/2000/svg">
<path fill-rule="evenodd" clip-rule="evenodd" d="M11.5 18C11.5 14.6863 14.1863 12 17.5 12H18.75V21.5H24.5464L47 23.5887V28H42.5V40.5H46.5V51H54C54.5523 51 55 51.4477 55 52C55 52.5523 54.5523 53 54 53H10C9.44772 53 9 52.5523 9 52C9 51.4477 9.44772 51 10 51H14.7972L23.0772 28H18.75V34.25H17.5C14.1863 34.25 11.5 31.5637 11.5 28.25V18ZM24.5 29.9523L23.6728 32.25H25.3272L24.5 29.9523ZM27.6988 32.9332C27.6939 32.9185 27.6886 32.9039 27.683 32.8895L25.9228 28H40.5V40.5H36.5V51H34.2028L27.6988 32.9332ZM26.0472 34.25H24.8019L26.6698 35.9796L26.0472 34.25ZM26.4481 38.5L22.6792 35.0102L21.4228 38.5H26.4481ZM20.5425 40.9453L19.1728 44.75H27.3909L20.5425 40.9453ZM30.5472 46.75H22.9812L31.8082 50.2528L30.5472 46.75ZM28.2688 51L18.3411 47.0604L16.9228 51H28.2688ZM29.4067 43.582L23.8591 40.5H28.2972L29.4067 43.582ZM38.5 51H44.5V42.5H38.5V51ZM16.75 14.0702C14.8994 14.4213 13.5 16.0472 13.5 18V28.25C13.5 30.2028 14.8994 31.8287 16.75 32.1798V26H45V25.4113L24.4536 23.5H16.75V14.0702ZM14 18.0625C14 17.5102 14.4477 17.0625 15 17.0625H15.5C16.0523 17.0625 16.5 17.5102 16.5 18.0625C16.5 18.6148 16.0523 19.0625 15.5 19.0625H15C14.4477 19.0625 14 18.6148 14 18.0625ZM14 23.125C14 22.5727 14.4477 22.125 15 22.125H15.5C16.0523 22.125 16.5 22.5727 16.5 23.125C16.5 23.6773 16.0523 24.125 15.5 24.125H15C14.4477 24.125 14 23.6773 14 23.125ZM14 28.1875C14 27.6352 14.4477 27.1875 15 27.1875H15.5C16.0523 27.1875 16.5 27.6352 16.5 28.1875C16.5 28.7398 16.0523 29.1875 15.5 29.1875H15C14.4477 29.1875 14 28.7398 14 28.1875Z" fill="black"/>
</svg>
